<svg width="30" height="30" viewBox="0 0 30 30" fill="#5C5B5B" xmlns="http://www.w3.org/2000/svg">
<path d="M8.71289 10.0371L3.7623 5.0877C2.09883 6.97207 0.89707 9.27012 0.346289 11.8143C1.1373 12.0352 1.95352 12.1875 2.8125 12.1875C5.05898 12.1875 7.0957 11.3613 8.71289 10.0371ZM11.3965 10.0723L15 13.6758L24.9141 3.76172C22.2656 1.42793 18.8027 0 15 0C14.5664 0 14.1328 0.0288398 13.6582 0.0652148C13.9336 0.946289 14.0625 1.86328 14.0625 2.8125C14.0625 5.57754 13.0547 8.10937 11.3965 10.0723ZM12.1875 2.8125C12.1875 1.95352 12.0338 1.1373 11.8164 0.346289C9.26953 0.89707 6.91992 2.09883 5.0877 3.7623L10.0377 8.7123C11.3613 7.0957 12.1875 5.05898 12.1875 2.8125ZM10.0723 11.3965C8.10937 13.0547 5.57754 14.0625 2.8125 14.0625C1.86328 14.0625 0.946289 13.9315 0.0650391 13.7091C0.0288398 14.1328 0 14.5664 0 15C0 18.8045 1.42793 22.2656 3.7623 24.9141L13.6758 15L10.0723 11.3965ZM18.6035 19.9277L15 16.3242L5.08594 26.2383C7.68164 28.5703 11.1973 30 15 30C15.4358 30 15.8643 29.9712 16.2908 29.9348C16.0664 29.0508 15.9375 28.1367 15.9375 27.1875C15.9375 24.4219 16.9453 21.8906 18.6035 19.9277ZM21.2871 19.9629L26.2371 24.9129C27.9006 23.0285 29.1023 20.7305 29.6531 18.1863C28.8633 17.9648 28.0488 17.8125 27.1875 17.8125C24.9434 17.8125 22.9043 18.6387 21.2871 19.9629ZM26.2383 5.0877L16.3242 15L19.9289 18.6047C21.8906 16.9453 24.4219 15.9375 27.1875 15.9375C28.1367 15.9375 29.0537 16.0685 29.935 16.2909C29.9707 15.8672 30 15.4336 30 15C30 11.1973 28.5703 7.68164 26.2383 5.0877ZM17.8125 27.1875C17.8125 28.0465 17.9662 28.8627 18.1836 29.6537C20.7301 29.1029 23.0276 27.9012 24.9102 26.2377L19.9602 21.2877C18.6387 22.9043 17.8125 24.9434 17.8125 27.1875Z" fill="#5C5B5B"/>
</svg>
