<svg width="28" height="29" viewBox="0 0 28 29" fill="#5C5B5B" xmlns="http://www.w3.org/2000/svg">
<path d="M9.36532 23.3508C9.36532 23.4707 9.23548 23.5666 9.07177 23.5666C8.88548 23.5846 8.75565 23.4887 8.75565 23.3508C8.75565 23.2308 8.88548 23.1349 9.04919 23.1349C9.21855 23.1169 9.36532 23.2128 9.36532 23.3508ZM7.60968 23.0809C7.57016 23.2008 7.68306 23.3388 7.85242 23.3747C7.99919 23.4347 8.16855 23.3747 8.20242 23.2548C8.23629 23.1349 8.12903 22.997 7.95968 22.943C7.8129 22.901 7.64919 22.961 7.60968 23.0809ZM10.1048 22.979C9.94113 23.0209 9.82823 23.1349 9.84516 23.2728C9.8621 23.3927 10.0089 23.4707 10.1782 23.4287C10.3419 23.3867 10.4548 23.2728 10.4379 23.1529C10.421 23.0389 10.2685 22.961 10.1048 22.979ZM13.8194 0C5.98952 0 0 6.31442 0 14.6317C0 21.2819 3.94032 26.9727 9.56855 28.9756C10.2911 29.1135 10.5452 28.6398 10.5452 28.25C10.5452 27.8782 10.5282 25.8274 10.5282 24.5681C10.5282 24.5681 6.57661 25.4676 5.74677 22.7811C5.74677 22.7811 5.10323 21.0361 4.17742 20.5863C4.17742 20.5863 2.88468 19.6449 4.26774 19.6628C4.26774 19.6628 5.67339 19.7828 6.44677 21.21C7.68306 23.5247 9.75484 22.859 10.5621 22.4633C10.6919 21.5038 11.0589 20.8382 11.4653 20.4424C8.30968 20.0706 5.12581 19.5849 5.12581 13.8162C5.12581 12.1671 5.55484 11.3396 6.45806 10.2842C6.31129 9.89439 5.83145 8.2873 6.60484 6.21248C7.78468 5.8227 10.5 7.83156 10.5 7.83156C11.629 7.49575 12.8427 7.32185 14.0452 7.32185C15.2476 7.32185 16.4613 7.49575 17.5903 7.83156C17.5903 7.83156 20.3056 5.8167 21.4855 6.21248C22.2589 8.2933 21.779 9.89439 21.6323 10.2842C22.5355 11.3456 23.0887 12.1731 23.0887 13.8162C23.0887 19.6029 19.7637 20.0646 16.6081 20.4424C17.1274 20.9161 17.5677 21.8156 17.5677 23.2248C17.5677 25.2457 17.5508 27.7463 17.5508 28.238C17.5508 28.6278 17.8105 29.1015 18.5274 28.9636C24.1726 26.9727 28 21.2819 28 14.6317C28 6.31442 21.6492 0 13.8194 0ZM5.4871 20.6823C5.41371 20.7422 5.43065 20.8802 5.52661 20.9941C5.61694 21.09 5.74677 21.132 5.82016 21.0541C5.89355 20.9941 5.87661 20.8562 5.78065 20.7422C5.69032 20.6463 5.56048 20.6043 5.4871 20.6823ZM4.87742 20.1965C4.8379 20.2745 4.89435 20.3704 5.00726 20.4304C5.09758 20.4904 5.21048 20.4724 5.25 20.3884C5.28952 20.3105 5.23306 20.2145 5.12016 20.1546C5.00726 20.1186 4.91694 20.1366 4.87742 20.1965ZM6.70645 22.3313C6.61613 22.4093 6.65 22.5892 6.77984 22.7031C6.90968 22.841 7.07339 22.859 7.14677 22.7631C7.22016 22.6851 7.18629 22.5052 7.07339 22.3913C6.94919 22.2534 6.77984 22.2354 6.70645 22.3313ZM6.0629 21.4498C5.97258 21.5098 5.97258 21.6657 6.0629 21.8036C6.15323 21.9416 6.30564 22.0015 6.37903 21.9416C6.46935 21.8636 6.46935 21.7077 6.37903 21.5698C6.3 21.4318 6.15323 21.3719 6.0629 21.4498Z" fill="#5C5B5B"/>
</svg>
